<?xml version="1.0" encoding="UTF-8"?>
<svg width="315px" height="445px" viewBox="0 0 315 445" version="1.1" xmlns="http://www.w3.org/2000/svg" xmlns:xlink="http://www.w3.org/1999/xlink">
    <!-- Generator: Sketch 52.3 (67297) - http://www.bohemiancoding.com/sketch -->
    <title>badge-heart-only copy</title>
    <desc>Created with Sketch.</desc>
    <g id="badge-heart-only-copy" stroke="none" stroke-width="1" fill="none" fill-rule="evenodd">
        <rect fill="#FFFFFF" x="0" y="0" width="315" height="445"></rect>
        <polygon id="Fill-1" fill="#1C2541" points="-16.9989706 462.716198 326 462.716198 326 399.630587 -16.9989706 399.630587"></polygon>
        <polygon id="Fill-2" fill="#1C2541" points="-21 222.037176 334.001029 222.037176 334.001029 -18 -21 -18"></polygon>
        <path d="M34.2695312,280 L33.5488281,277.814453 L30.4375,277.814453 L29.7167969,280 L28.1582031,280 L31.1582031,271.544922 L32.8632812,271.544922 L35.8632812,280 L34.2695312,280 Z M31.9726562,273.039062 L30.7890625,276.648438 L33.1914062,276.648438 L32.0136719,273.039062 L31.9726562,273.039062 Z M36.2686562,275.570312 C36.2686562,274.433594 37.2588906,273.660156 38.7588906,273.660156 C40.2706094,273.660156 41.2315469,274.474609 41.2667031,275.652344 L39.9073281,275.652344 C39.8487344,275.089844 39.4327187,274.732422 38.7588906,274.732422 C38.1143594,274.732422 37.686625,275.037109 37.686625,275.494141 C37.686625,275.851562 37.9444375,276.097656 38.5948281,276.244141 L39.6260781,276.472656 C40.9151406,276.759766 41.4131875,277.257812 41.4131875,278.160156 C41.4131875,279.332031 40.3350625,280.123047 38.811625,280.123047 C37.1885781,280.123047 36.2276406,279.349609 36.1104531,278.148438 L37.546,278.148438 C37.6573281,278.751953 38.0733437,279.056641 38.811625,279.056641 C39.5206094,279.056641 39.9600625,278.763672 39.9600625,278.300781 C39.9600625,277.925781 39.7374062,277.714844 39.0870156,277.568359 L38.0557656,277.339844 C36.8663125,277.076172 36.2686562,276.490234 36.2686562,275.570312 Z M43.8065469,276.378906 L46.1444375,273.789062 L47.8260781,273.789062 L45.3417031,276.460938 L47.9315469,280 L46.2440469,280 L44.2811563,277.345703 L43.7889688,277.84375 L43.7889688,280 L42.3299844,280 L42.3299844,271.544922 L43.7889688,271.544922 L43.7889688,276.378906 L43.8065469,276.378906 Z M50.8139688,280 L50.8139688,273.789062 L52.2143594,273.789062 L52.2143594,274.867188 L52.2436563,274.867188 C52.5131875,274.146484 53.1694375,273.671875 54.0131875,273.671875 C54.8920938,273.671875 55.5190469,274.123047 55.7475625,274.919922 L55.7827188,274.919922 C56.0815469,274.152344 56.8198281,273.671875 57.7163125,273.671875 C58.9409219,273.671875 59.7436563,274.498047 59.7436563,275.740234 L59.7436563,280 L58.2846719,280 L58.2846719,276.097656 C58.2846719,275.335938 57.8862344,274.902344 57.1713906,274.902344 C56.4682656,274.902344 55.9877969,275.417969 55.9877969,276.162109 L55.9877969,280 L54.5698281,280 L54.5698281,276.021484 C54.5698281,275.330078 54.1479531,274.902344 53.4682656,274.902344 C52.7651406,274.902344 52.2729531,275.447266 52.2729531,276.197266 L52.2729531,280 L50.8139688,280 Z M63.5374062,274.791016 C62.7170937,274.791016 62.1252969,275.417969 62.0667031,276.285156 L64.9670938,276.285156 C64.9377969,275.40625 64.3752969,274.791016 63.5374062,274.791016 Z M64.9729531,278.142578 L66.3381875,278.142578 C66.1506875,279.314453 65.0608438,280.123047 63.5901406,280.123047 C61.7268594,280.123047 60.6018594,278.898438 60.6018594,276.917969 C60.6018594,274.955078 61.7385781,273.660156 63.5315469,273.660156 C65.2952188,273.660156 66.3967813,274.884766 66.3967813,276.771484 L66.3967813,277.246094 L62.0549844,277.246094 L62.0549844,277.333984 C62.0549844,278.330078 62.6643594,278.998047 63.6194375,278.998047 C64.299125,278.998047 64.81475,278.658203 64.9729531,278.142578 Z M71.9042031,278.998047 C72.730375,278.998047 73.3924844,278.447266 73.3924844,277.697266 L73.3924844,277.222656 L71.9569375,277.310547 C71.2538125,277.357422 70.8495156,277.673828 70.8495156,278.166016 C70.8495156,278.675781 71.2713906,278.998047 71.9042031,278.998047 Z M71.46475,280.099609 C70.2635781,280.099609 69.3905313,279.34375 69.3905313,278.224609 C69.3905313,277.123047 70.2401406,276.460938 71.7518594,276.367188 L73.3924844,276.273438 L73.3924844,275.828125 C73.3924844,275.177734 72.9530313,274.802734 72.2323281,274.802734 C71.5409219,274.802734 71.1014688,275.136719 71.0077188,275.652344 L69.6542031,275.652344 C69.7186563,274.492188 70.7088906,273.660156 72.2909219,273.660156 C73.8319375,273.660156 74.8338906,274.474609 74.8338906,275.722656 L74.8338906,280 L73.4276406,280 L73.4276406,279.009766 L73.3983438,279.009766 C73.0409219,279.683594 72.261625,280.099609 71.46475,280.099609 Z M79.430375,280.099609 C78.5163125,280.099609 77.8190469,279.660156 77.4557656,278.939453 L77.4264688,278.939453 L77.4264688,280 L75.9967813,280 L75.9967813,271.544922 L77.4557656,271.544922 L77.4557656,274.855469 L77.4909219,274.855469 C77.8424844,274.128906 78.5514688,273.683594 79.430375,273.683594 C80.9948281,273.683594 81.9909219,274.908203 81.9909219,276.894531 C81.9909219,278.880859 81.0006875,280.099609 79.430375,280.099609 Z M78.9792031,274.884766 C78.0768594,274.884766 77.4499063,275.6875 77.4499063,276.894531 C77.4499063,278.113281 78.0768594,278.904297 78.9792031,278.904297 C79.9167031,278.904297 80.4967813,278.130859 80.4967813,276.894531 C80.4967813,275.664062 79.9108438,274.884766 78.9792031,274.884766 Z M85.6323281,280.123047 C83.8100625,280.123047 82.6264688,278.910156 82.6264688,276.894531 C82.6264688,274.890625 83.8217813,273.660156 85.6323281,273.660156 C87.442875,273.660156 88.6381875,274.884766 88.6381875,276.894531 C88.6381875,278.910156 87.4545938,280.123047 85.6323281,280.123047 Z M85.6323281,278.96875 C86.5581094,278.96875 87.1557656,278.21875 87.1557656,276.894531 C87.1557656,275.576172 86.5581094,274.820312 85.6323281,274.820312 C84.7124063,274.820312 84.1088906,275.576172 84.1088906,276.894531 C84.1088906,278.21875 84.7065469,278.96875 85.6323281,278.96875 Z M95.0335,273.789062 L95.0335,280 L93.62725,280 L93.62725,278.921875 L93.5979531,278.921875 C93.2698281,279.677734 92.642875,280.111328 91.6995156,280.111328 C90.3518594,280.111328 89.4963906,279.238281 89.4963906,277.802734 L89.4963906,273.789062 L90.955375,273.789062 L90.955375,277.509766 C90.955375,278.400391 91.3889688,278.880859 92.2092813,278.880859 C93.0530313,278.880859 93.5745156,278.283203 93.5745156,277.380859 L93.5745156,273.789062 L95.0335,273.789062 Z M96.57725,272.335938 L98.0362344,272.335938 L98.0362344,273.789062 L99.2081094,273.789062 L99.2081094,274.914062 L98.0362344,274.914062 L98.0362344,278.142578 C98.0362344,278.652344 98.2706094,278.886719 98.7862344,278.886719 C98.921,278.886719 99.1085,278.875 99.20225,278.857422 L99.20225,279.970703 C99.0440469,280.005859 98.7569375,280.029297 98.4463906,280.029297 C97.1045938,280.029297 96.57725,279.554688 96.57725,278.347656 L96.57725,274.914062 L95.686625,274.914062 L95.686625,273.789062 L96.57725,273.789062 L96.57725,272.335938 Z M101.167875,280.064453 C100.693266,280.064453 100.324125,279.695312 100.324125,279.220703 C100.324125,278.751953 100.693266,278.376953 101.167875,278.376953 C101.636625,278.376953 102.005766,278.751953 102.005766,279.220703 C102.005766,279.695312 101.636625,280.064453 101.167875,280.064453 Z M101.167875,275.6875 C100.693266,275.6875 100.324125,275.3125 100.324125,274.84375 C100.324125,274.375 100.693266,274 101.167875,274 C101.636625,274 102.005766,274.375 102.005766,274.84375 C102.005766,275.3125 101.636625,275.6875 101.167875,275.6875 Z" id="Ask-me-about:" fill="#1C2541"></path>
        <path d="M236.945312,428 L237.546875,425.03125 L235.492188,425.03125 L234.890625,428 L233.171875,428 L233.757812,425.03125 L232,425.03125 L232.320312,423.34375 L234.09375,423.34375 L234.515625,421.234375 L232.71875,421.234375 L233.039062,419.5625 L234.851562,419.5625 L235.429688,416.71875 L237.148438,416.71875 L236.585938,419.5625 L238.632812,419.5625 L239.210938,416.71875 L240.945312,416.71875 L240.375,419.5625 L242.21875,419.5625 L241.898438,421.234375 L240.03125,421.234375 L239.609375,423.34375 L241.492188,423.34375 L241.171875,425.03125 L239.273438,425.03125 L238.679688,428 L236.945312,428 Z M235.679688,423.492188 L237.953125,423.492188 L238.445312,421.09375 L236.164062,421.09375 L235.679688,423.492188 Z M250.570312,422.742188 L248.453125,422.742188 C248.320312,421.859375 247.734375,421.234375 246.796875,421.234375 C245.671875,421.234375 244.96875,422.1875 244.96875,423.804688 C244.96875,425.453125 245.671875,426.390625 246.804688,426.390625 C247.71875,426.390625 248.3125,425.84375 248.453125,424.929688 L250.578125,424.929688 C250.460938,426.90625 248.984375,428.179688 246.78125,428.179688 C244.257812,428.179688 242.65625,426.539062 242.65625,423.804688 C242.65625,421.117188 244.257812,419.445312 246.765625,419.445312 C249.03125,419.445312 250.46875,420.84375 250.570312,422.742188 Z M251.734375,428 L251.734375,416.726562 L253.976562,416.726562 L253.976562,421.117188 L254.023438,421.117188 C254.46875,420.0625 255.382812,419.46875 256.65625,419.46875 C258.515625,419.46875 259.578125,420.671875 259.578125,422.609375 L259.578125,428 L257.296875,428 L257.296875,423.09375 C257.296875,422.015625 256.765625,421.359375 255.726562,421.359375 C254.648438,421.359375 254.015625,422.117188 254.015625,423.21875 L254.015625,428 L251.734375,428 Z M264.140625,428.132812 C262.046875,428.132812 260.726562,426.476562 260.726562,423.796875 C260.726562,421.140625 262.054688,419.492188 264.15625,419.492188 C265.367188,419.492188 266.304688,420.132812 266.710938,421.0625 L266.757812,421.0625 L266.757812,416.726562 L269.039062,416.726562 L269.039062,428 L266.789062,428 L266.789062,426.5625 L266.75,426.5625 C266.34375,427.484375 265.375,428.132812 264.140625,428.132812 Z M264.914062,421.320312 C263.765625,421.320312 263.0625,422.28125 263.0625,423.8125 C263.0625,425.351562 263.765625,426.296875 264.914062,426.296875 C266.046875,426.296875 266.773438,425.34375 266.773438,423.8125 C266.773438,422.289062 266.046875,421.320312 264.914062,421.320312 Z M273.4375,428 L273.4375,418.890625 L273.390625,418.890625 L270.515625,420.84375 L270.515625,418.75 L273.429688,416.726562 L275.773438,416.726562 L275.773438,428 L273.4375,428 Z M282.71875,428.25 C280.023438,428.25 278.148438,426.898438 278.148438,424.945312 C278.148438,423.460938 279.242188,422.367188 280.78125,422.070312 L280.78125,422.023438 C279.453125,421.703125 278.554688,420.734375 278.554688,419.507812 C278.554688,417.757812 280.273438,416.476562 282.71875,416.476562 C285.164062,416.476562 286.875,417.75 286.875,419.515625 C286.875,420.726562 285.984375,421.695312 284.664062,422.023438 L284.664062,422.070312 C286.203125,422.375 287.289062,423.46875 287.289062,424.953125 C287.289062,426.90625 285.40625,428.25 282.71875,428.25 Z M282.71875,426.53125 C283.960938,426.53125 284.820312,425.796875 284.820312,424.773438 C284.820312,423.757812 283.960938,423.03125 282.71875,423.03125 C281.476562,423.03125 280.609375,423.765625 280.609375,424.773438 C280.609375,425.796875 281.476562,426.53125 282.71875,426.53125 Z M282.71875,421.3125 C283.78125,421.3125 284.546875,420.671875 284.546875,419.75 C284.546875,418.820312 283.78125,418.179688 282.71875,418.179688 C281.648438,418.179688 280.890625,418.820312 280.890625,419.75 C280.890625,420.671875 281.648438,421.3125 282.71875,421.3125 Z" id="#chd18" fill="#FFFFFF"></path>
        <path d="M35.2184926,421.429688 C34.3903676,421.429688 33.8981801,422.109375 33.8981801,423.25 C33.8981801,424.382812 34.3903676,425.070312 35.2106801,425.070312 C36.0544301,425.070312 36.5778676,424.375 36.5778676,423.25 C36.5778676,422.125 36.0544301,421.429688 35.2184926,421.429688 Z M35.4763051,416.679688 C39.1794301,416.679688 41.7809926,419.007812 41.7809926,422.484375 C41.7809926,424.945312 40.6169301,426.53125 38.7106801,426.53125 C37.7419301,426.53125 36.9997426,426.0625 36.8278676,425.304688 L36.7184926,425.304688 C36.3981801,426.085938 35.7419301,426.507812 34.8356801,426.507812 C33.2106801,426.507812 32.1247426,425.1875 32.1247426,423.203125 C32.1247426,421.304688 33.1950551,420.007812 34.7575551,420.007812 C35.6013051,420.007812 36.3044301,420.429688 36.6091176,421.117188 L36.7184926,421.117188 L36.7184926,420.179688 L38.3044301,420.179688 L38.3044301,424.359375 C38.3044301,424.898438 38.5544301,425.242188 39.0466176,425.242188 C39.8122426,425.242188 40.3434926,424.265625 40.3434926,422.601562 C40.3434926,419.757812 38.3825551,417.921875 35.4216176,417.921875 C32.4138051,417.921875 30.3044301,420.09375 30.3044301,423.234375 C30.3044301,426.523438 32.4997426,428.445312 35.7184926,428.445312 C36.5544301,428.445312 37.4059926,428.335938 37.8513051,428.171875 L37.8513051,429.421875 C37.2419301,429.601562 36.4450551,429.710938 35.6013051,429.710938 C31.6481801,429.710938 28.8669301,427.234375 28.8669301,423.195312 C28.8669301,419.320312 31.5778676,416.679688 35.4763051,416.679688 Z M50.7341176,422.742188 L48.6169301,422.742188 C48.4841176,421.859375 47.8981801,421.234375 46.9606801,421.234375 C45.8356801,421.234375 45.1325551,422.1875 45.1325551,423.804688 C45.1325551,425.453125 45.8356801,426.390625 46.9684926,426.390625 C47.8825551,426.390625 48.4763051,425.84375 48.6169301,424.929688 L50.7419301,424.929688 C50.6247426,426.90625 49.1481801,428.179688 46.9450551,428.179688 C44.4216176,428.179688 42.8200551,426.539062 42.8200551,423.804688 C42.8200551,421.117188 44.4216176,419.445312 46.9294301,419.445312 C49.1950551,419.445312 50.6325551,420.84375 50.7341176,422.742188 Z M55.6872426,428.179688 C53.1559926,428.179688 51.5388051,426.554688 51.5388051,423.804688 C51.5388051,421.09375 53.1794301,419.445312 55.6872426,419.445312 C58.1950551,419.445312 59.8356801,421.085938 59.8356801,423.804688 C59.8356801,426.5625 58.2184926,428.179688 55.6872426,428.179688 Z M55.6872426,426.4375 C56.8044301,426.4375 57.5153676,425.492188 57.5153676,423.8125 C57.5153676,422.148438 56.7966176,421.1875 55.6872426,421.1875 C54.5778676,421.1875 53.8513051,422.148438 53.8513051,423.8125 C53.8513051,425.492188 54.5622426,426.4375 55.6872426,426.4375 Z M64.1169301,428.132812 C62.0231801,428.132812 60.7028676,426.476562 60.7028676,423.796875 C60.7028676,421.140625 62.0309926,419.492188 64.1325551,419.492188 C65.3434926,419.492188 66.2809926,420.132812 66.6872426,421.0625 L66.7341176,421.0625 L66.7341176,416.726562 L69.0153676,416.726562 L69.0153676,428 L66.7653676,428 L66.7653676,426.5625 L66.7263051,426.5625 C66.3200551,427.484375 65.3513051,428.132812 64.1169301,428.132812 Z M64.8903676,421.320312 C63.7419301,421.320312 63.0388051,422.28125 63.0388051,423.8125 C63.0388051,425.351562 63.7419301,426.296875 64.8903676,426.296875 C66.0231801,426.296875 66.7497426,425.34375 66.7497426,423.8125 C66.7497426,422.289062 66.0231801,421.320312 64.8903676,421.320312 Z M74.2966176,421.132812 C73.2966176,421.132812 72.5778676,421.890625 72.4997426,422.9375 L76.0544301,422.9375 C76.0075551,421.867188 75.3122426,421.132812 74.2966176,421.132812 Z M76.0856801,425.4375 L78.1794301,425.4375 C77.9294301,427.078125 76.4294301,428.179688 74.3591176,428.179688 C71.7809926,428.179688 70.2341176,426.53125 70.2341176,423.851562 C70.2341176,421.179688 71.7966176,419.445312 74.2731801,419.445312 C76.7106801,419.445312 78.2497426,421.09375 78.2497426,423.640625 L78.2497426,424.335938 L72.4763051,424.335938 L72.4763051,424.476562 C72.4763051,425.671875 73.2341176,426.492188 74.3981801,426.492188 C75.2341176,426.492188 75.8747426,426.078125 76.0856801,425.4375 Z M79.4763051,428 L79.4763051,416.726562 L81.7184926,416.726562 L81.7184926,421.117188 L81.7653676,421.117188 C82.2106801,420.0625 83.1247426,419.46875 84.3981801,419.46875 C86.2575551,419.46875 87.3200551,420.671875 87.3200551,422.609375 L87.3200551,428 L85.0388051,428 L85.0388051,423.09375 C85.0388051,422.015625 84.5075551,421.359375 83.4684926,421.359375 C82.3903676,421.359375 81.7575551,422.117188 81.7575551,423.21875 L81.7575551,428 L79.4763051,428 Z M92.5309926,421.132812 C91.5309926,421.132812 90.8122426,421.890625 90.7341176,422.9375 L94.2888051,422.9375 C94.2419301,421.867188 93.5466176,421.132812 92.5309926,421.132812 Z M94.3200551,425.4375 L96.4138051,425.4375 C96.1638051,427.078125 94.6638051,428.179688 92.5934926,428.179688 C90.0153676,428.179688 88.4684926,426.53125 88.4684926,423.851562 C88.4684926,421.179688 90.0309926,419.445312 92.5075551,419.445312 C94.9450551,419.445312 96.4841176,421.09375 96.4841176,423.640625 L96.4841176,424.335938 L90.7106801,424.335938 L90.7106801,424.476562 C90.7106801,425.671875 91.4684926,426.492188 92.6325551,426.492188 C93.4684926,426.492188 94.1091176,426.078125 94.3200551,425.4375 Z M100.890368,426.484375 C101.882555,426.484375 102.702868,425.835938 102.702868,424.929688 L102.702868,424.320312 L100.937243,424.429688 C100.08568,424.492188 99.6013051,424.875 99.6013051,425.46875 C99.6013051,426.09375 100.11693,426.484375 100.890368,426.484375 Z M100.140368,428.132812 C98.5466176,428.132812 97.3356801,427.101562 97.3356801,425.59375 C97.3356801,424.070312 98.5075551,423.1875 100.593493,423.0625 L102.702868,422.9375 L102.702868,422.382812 C102.702868,421.601562 102.155993,421.148438 101.296618,421.148438 C100.445055,421.148438 99.9059926,421.570312 99.7966176,422.1875 L97.7106801,422.1875 C97.7966176,420.5625 99.1794301,419.445312 101.39818,419.445312 C103.546618,419.445312 104.945055,420.554688 104.945055,422.242188 L104.945055,428 L102.74193,428 L102.74193,426.71875 L102.695055,426.71875 C102.226305,427.609375 101.187243,428.132812 100.140368,428.132812 Z M106.413805,428 L106.413805,419.625 L108.61693,419.625 L108.61693,421.132812 L108.663805,421.132812 C108.96068,420.070312 109.671618,419.492188 110.655993,419.492188 C110.921618,419.492188 111.14818,419.53125 111.30443,419.578125 L111.30443,421.585938 C111.11693,421.507812 110.80443,421.453125 110.476305,421.453125 C109.351305,421.453125 108.695055,422.140625 108.695055,423.320312 L108.695055,428 L106.413805,428 Z M112.843493,417.695312 L115.124743,417.695312 L115.124743,419.625 L116.671618,419.625 L116.671618,421.34375 L115.124743,421.34375 L115.124743,425.351562 C115.124743,425.992188 115.437243,426.296875 116.109118,426.296875 C116.312243,426.296875 116.52318,426.28125 116.663805,426.257812 L116.663805,427.9375 C116.42943,427.992188 116.038805,428.03125 115.577868,428.03125 C113.609118,428.03125 112.843493,427.375 112.843493,425.742188 L112.843493,421.34375 L111.663805,421.34375 L111.663805,419.625 L112.843493,419.625 L112.843493,417.695312 Z M120.913805,428.132812 C118.820055,428.132812 117.499743,426.476562 117.499743,423.796875 C117.499743,421.140625 118.827868,419.492188 120.92943,419.492188 C122.140368,419.492188 123.077868,420.132812 123.484118,421.0625 L123.530993,421.0625 L123.530993,416.726562 L125.812243,416.726562 L125.812243,428 L123.562243,428 L123.562243,426.5625 L123.52318,426.5625 C123.11693,427.484375 122.14818,428.132812 120.913805,428.132812 Z M121.687243,421.320312 C120.538805,421.320312 119.83568,422.28125 119.83568,423.8125 C119.83568,425.351562 120.538805,426.296875 121.687243,426.296875 C122.820055,426.296875 123.546618,425.34375 123.546618,423.8125 C123.546618,422.289062 122.820055,421.320312 121.687243,421.320312 Z M131.093493,421.132812 C130.093493,421.132812 129.374743,421.890625 129.296618,422.9375 L132.851305,422.9375 C132.80443,421.867188 132.109118,421.132812 131.093493,421.132812 Z M132.882555,425.4375 L134.976305,425.4375 C134.726305,427.078125 133.226305,428.179688 131.155993,428.179688 C128.577868,428.179688 127.030993,426.53125 127.030993,423.851562 C127.030993,421.179688 128.593493,419.445312 131.070055,419.445312 C133.507555,419.445312 135.046618,421.09375 135.046618,423.640625 L135.046618,424.335938 L129.27318,424.335938 L129.27318,424.476562 C129.27318,425.671875 130.030993,426.492188 131.195055,426.492188 C132.030993,426.492188 132.671618,426.078125 132.882555,425.4375 Z M136.077868,422.085938 C136.077868,420.492188 137.452868,419.445312 139.58568,419.445312 C141.734118,419.445312 143.062243,420.546875 143.109118,422.1875 L141.007555,422.1875 C140.937243,421.507812 140.42943,421.046875 139.58568,421.046875 C138.796618,421.046875 138.27318,421.40625 138.27318,421.960938 C138.27318,422.390625 138.58568,422.679688 139.42943,422.859375 L140.859118,423.164062 C142.609118,423.53125 143.327868,424.21875 143.327868,425.445312 C143.327868,427.09375 141.820055,428.179688 139.663805,428.179688 C137.351305,428.179688 136.015368,427.101562 135.86693,425.453125 L138.093493,425.453125 C138.234118,426.1875 138.757555,426.578125 139.663805,426.578125 C140.52318,426.578125 141.05443,426.226562 141.05443,425.679688 C141.05443,425.234375 140.765368,424.984375 139.945055,424.796875 L138.515368,424.5 C136.89818,424.15625 136.077868,423.34375 136.077868,422.085938 Z M144.49193,428 L144.49193,419.625 L146.77318,419.625 L146.77318,428 L144.49193,428 Z M145.624743,418.492188 C144.96068,418.492188 144.437243,417.960938 144.437243,417.320312 C144.437243,416.671875 144.96068,416.148438 145.624743,416.148438 C146.288805,416.148438 146.812243,416.671875 146.812243,417.320312 C146.812243,417.960938 146.288805,418.492188 145.624743,418.492188 Z M152.155993,426.21875 C153.296618,426.21875 154.02318,425.3125 154.02318,423.796875 C154.02318,422.289062 153.296618,421.320312 152.155993,421.320312 C151.030993,421.320312 150.320055,422.273438 150.320055,423.796875 C150.320055,425.328125 151.02318,426.21875 152.155993,426.21875 Z M152.11693,431.15625 C149.913805,431.15625 148.421618,430.085938 148.24193,428.59375 L150.476305,428.59375 C150.655993,429.171875 151.312243,429.570312 152.17943,429.570312 C153.359118,429.570312 154.015368,428.914062 154.015368,427.945312 L154.015368,426.476562 L153.968493,426.476562 C153.577868,427.367188 152.593493,427.976562 151.382555,427.976562 C149.33568,427.976562 147.984118,426.398438 147.984118,423.78125 C147.984118,421.125 149.296618,419.492188 151.421618,419.492188 C152.624743,419.492188 153.570055,420.125 154.007555,421.085938 L154.046618,421.085938 L154.046618,419.625 L156.296618,419.625 L156.296618,427.882812 C156.296618,429.882812 154.624743,431.15625 152.11693,431.15625 Z M157.780993,428 L157.780993,419.625 L159.984118,419.625 L159.984118,421.117188 L160.030993,421.117188 C160.476305,420.078125 161.359118,419.46875 162.64818,419.46875 C164.507555,419.46875 165.55443,420.640625 165.55443,422.601562 L165.55443,428 L163.27318,428 L163.27318,423.078125 C163.27318,421.984375 162.757555,421.359375 161.734118,421.359375 C160.71068,421.359375 160.062243,422.109375 160.062243,423.195312 L160.062243,428 L157.780993,428 Z" id="@codeheartdesign" fill="#FFFFFF"></path>
        <g id="hold-punch" transform="translate(154.000000, 32.000000)" fill-rule="nonzero" stroke="#FFFFFF" stroke-linecap="square" stroke-opacity="0.198680933">
            <path d="M6.99440506e-15,4 L2,4" id="Line"></path>
            <path d="M5,4 L7,4" id="Line"></path>
            <path d="M3.5,0.5 L3.49948529,2.5" id="Line-2"></path>
            <path d="M3.5,5.5 L3.49948529,7.5" id="Line-2"></path>
        </g>
        <g id="heart" transform="translate(114.000000, 185.000000)">
            <polygon stroke="#FFFFFF" stroke-width="9.5" fill="#FFFFFF" fill-rule="nonzero" stroke-linejoin="round" points="16.0605427 0 16.0605427 8.03027133 8.03027133 8.03027133 8.03027133 16.0605427 2.27373675e-13 16.0605427 2.27373675e-13 38.8129781 8.03027133 38.8129781 8.03027133 46.8432494 16.0605427 46.8432494 16.0605427 55.167964 24.0909846 55.167964 24.0909846 62.9037921 32.2123775 62.9037921 32.2123775 70.9340634 40.2106618 70.9340634 40.2106618 78.9643347 46.8432494 78.9643347 46.8432494 70.9340634 54.6964493 70.9340634 54.6964493 62.9037921 62.9037921 62.9037921 62.9037921 55.167964 70.8809206 55.167964 70.8809206 46.8432494 79.0703472 46.8432494 79.0703472 38.8129781 86.9946061 38.8129781 86.9946061 16.0605427 79.0703472 16.0605427 79.0703472 8.03027133 70.8809206 8.03027133 70.8809206 0 56.058744 0 56.058744 8.03027133 48.1652101 8.03027133 48.1652101 16.0605427 38.8084108 16.0605427 38.8084108 8.03027133 31.022327 8.03027133 31.022327 0"></polygon>
            <path d="M16.0605427,1.77635684e-15 L22.7524354,1.77635684e-15 L22.7524354,6.67897386 L16.0605427,6.67897386 L16.0605427,1.77635684e-15 Z M8.03027133,8.01476864 L14.7221641,8.01476864 L14.7221641,14.6937425 L8.03027133,14.6937425 L8.03027133,8.01476864 Z M2.09610107e-13,16.0295373 L6.69189277,16.0295373 L6.69189277,22.7085111 L2.09610107e-13,22.7085111 L2.09610107e-13,16.0295373 Z M24.090814,1.77635684e-15 L30.7827068,1.77635684e-15 L30.7827068,6.67897386 L24.090814,6.67897386 L24.090814,1.77635684e-15 Z M16.0605427,8.01476864 L22.7524354,8.01476864 L22.7524354,14.6937425 L16.0605427,14.6937425 L16.0605427,8.01476864 Z M8.03027133,16.0295373 L14.7221641,16.0295373 L14.7221641,22.7085111 L8.03027133,22.7085111 L8.03027133,16.0295373 Z M2.09610107e-13,24.0443059 L6.69189277,24.0443059 L6.69189277,30.7232798 L2.09610107e-13,30.7232798 L2.09610107e-13,24.0443059 Z M24.090814,8.01476864 L30.7827068,8.01476864 L30.7827068,14.6937425 L24.090814,14.6937425 L24.090814,8.01476864 Z M16.0605427,16.0295373 L22.7524354,16.0295373 L22.7524354,22.7085111 L16.0605427,22.7085111 L16.0605427,16.0295373 Z M8.03027133,24.0443059 L14.7221641,24.0443059 L14.7221641,30.7232798 L8.03027133,30.7232798 L8.03027133,24.0443059 Z M2.09610107e-13,32.0590745 L6.69189277,32.0590745 L6.69189277,38.7380484 L2.09610107e-13,38.7380484 L2.09610107e-13,32.0590745 Z M32.1210853,8.01476864 L38.8129781,8.01476864 L38.8129781,14.6937425 L32.1210853,14.6937425 L32.1210853,8.01476864 Z M24.090814,16.0295373 L30.7827068,16.0295373 L30.7827068,22.7085111 L24.090814,22.7085111 L24.090814,16.0295373 Z M16.0605427,24.0443059 L22.7524354,24.0443059 L22.7524354,30.7232798 L16.0605427,30.7232798 L16.0605427,24.0443059 Z M8.03027133,32.0590745 L14.7221641,32.0590745 L14.7221641,38.7380484 L8.03027133,38.7380484 L8.03027133,32.0590745 Z M32.1210853,16.0295373 L38.8129781,16.0295373 L38.8129781,22.7085111 L32.1210853,22.7085111 L32.1210853,16.0295373 Z M24.090814,24.0443059 L30.7827068,24.0443059 L30.7827068,30.7232798 L24.090814,30.7232798 L24.090814,24.0443059 Z M16.0605427,32.0590745 L22.7524354,32.0590745 L22.7524354,38.7380484 L16.0605427,38.7380484 L16.0605427,32.0590745 Z M8.03027133,40.0738432 L14.7221641,40.0738432 L14.7221641,46.752817 L8.03027133,46.752817 L8.03027133,40.0738432 Z M56.2118993,1.77635684e-15 L62.9037921,1.77635684e-15 L62.9037921,6.67897386 L56.2118993,6.67897386 L56.2118993,1.77635684e-15 Z M48.181628,8.01476864 L54.8735207,8.01476864 L54.8735207,14.6937425 L48.181628,14.6937425 L48.181628,8.01476864 Z M40.1513566,16.0295373 L46.8432494,16.0295373 L46.8432494,22.7085111 L40.1513566,22.7085111 L40.1513566,16.0295373 Z M32.1210853,24.0443059 L38.8129781,24.0443059 L38.8129781,30.7232798 L32.1210853,30.7232798 L32.1210853,24.0443059 Z M24.090814,32.0590745 L30.7827068,32.0590745 L30.7827068,38.7380484 L24.090814,38.7380484 L24.090814,32.0590745 Z M16.0605427,40.0738432 L22.7524354,40.0738432 L22.7524354,46.752817 L16.0605427,46.752817 L16.0605427,40.0738432 Z M64.2421706,1.77635684e-15 L70.9340634,1.77635684e-15 L70.9340634,6.67897386 L64.2421706,6.67897386 L64.2421706,1.77635684e-15 Z M56.2118993,8.01476864 L62.9037921,8.01476864 L62.9037921,14.6937425 L56.2118993,14.6937425 L56.2118993,8.01476864 Z M48.181628,16.0295373 L54.8735207,16.0295373 L54.8735207,22.7085111 L48.181628,22.7085111 L48.181628,16.0295373 Z M40.1513566,24.0443059 L46.8432494,24.0443059 L46.8432494,30.7232798 L40.1513566,30.7232798 L40.1513566,24.0443059 Z M32.1210853,32.0590745 L38.8129781,32.0590745 L38.8129781,38.7380484 L32.1210853,38.7380484 L32.1210853,32.0590745 Z M24.090814,40.0738432 L30.7827068,40.0738432 L30.7827068,46.752817 L24.090814,46.752817 L24.090814,40.0738432 Z M16.0605427,48.0886118 L22.7524354,48.0886118 L22.7524354,54.7675857 L16.0605427,54.7675857 L16.0605427,48.0886118 Z M64.2421706,8.01476864 L70.9340634,8.01476864 L70.9340634,14.6937425 L64.2421706,14.6937425 L64.2421706,8.01476864 Z M56.2118993,16.0295373 L62.9037921,16.0295373 L62.9037921,22.7085111 L56.2118993,22.7085111 L56.2118993,16.0295373 Z M48.181628,24.0443059 L54.8735207,24.0443059 L54.8735207,30.7232798 L48.181628,30.7232798 L48.181628,24.0443059 Z M40.1513566,32.0590745 L46.8432494,32.0590745 L46.8432494,38.7380484 L40.1513566,38.7380484 L40.1513566,32.0590745 Z M32.1210853,40.0738432 L38.8129781,40.0738432 L38.8129781,46.752817 L32.1210853,46.752817 L32.1210853,40.0738432 Z M24.090814,48.0886118 L30.7827068,48.0886118 L30.7827068,54.7675857 L24.090814,54.7675857 L24.090814,48.0886118 Z M72.272442,8.01476864 L78.9643347,8.01476864 L78.9643347,14.6937425 L72.272442,14.6937425 L72.272442,8.01476864 Z M64.2421706,16.0295373 L70.9340634,16.0295373 L70.9340634,22.7085111 L64.2421706,22.7085111 L64.2421706,16.0295373 Z M56.2118993,24.0443059 L62.9037921,24.0443059 L62.9037921,30.7232798 L56.2118993,30.7232798 L56.2118993,24.0443059 Z M48.181628,32.0590745 L54.8735207,32.0590745 L54.8735207,38.7380484 L48.181628,38.7380484 L48.181628,32.0590745 Z M40.1513566,40.0738432 L46.8432494,40.0738432 L46.8432494,46.752817 L40.1513566,46.752817 L40.1513566,40.0738432 Z M32.1210853,48.0886118 L38.8129781,48.0886118 L38.8129781,54.7675857 L32.1210853,54.7675857 L32.1210853,48.0886118 Z M24.090814,56.1033805 L30.7827068,56.1033805 L30.7827068,62.7823543 L24.090814,62.7823543 L24.090814,56.1033805 Z M72.272442,16.0295373 L78.9643347,16.0295373 L78.9643347,22.7085111 L72.272442,22.7085111 L72.272442,16.0295373 Z M64.2421706,24.0443059 L70.9340634,24.0443059 L70.9340634,30.7232798 L64.2421706,30.7232798 L64.2421706,24.0443059 Z M56.2118993,32.0590745 L62.9037921,32.0590745 L62.9037921,38.7380484 L56.2118993,38.7380484 L56.2118993,32.0590745 Z M48.181628,40.0738432 L54.8735207,40.0738432 L54.8735207,46.752817 L48.181628,46.752817 L48.181628,40.0738432 Z M40.1513566,48.0886118 L46.8432494,48.0886118 L46.8432494,54.7675857 L40.1513566,54.7675857 L40.1513566,48.0886118 Z M32.1210853,56.1033805 L38.8129781,56.1033805 L38.8129781,62.7823543 L32.1210853,62.7823543 L32.1210853,56.1033805 Z M80.3027133,16.0295373 L86.9946061,16.0295373 L86.9946061,22.7085111 L80.3027133,22.7085111 L80.3027133,16.0295373 Z M72.272442,24.0443059 L78.9643347,24.0443059 L78.9643347,30.7232798 L72.272442,30.7232798 L72.272442,24.0443059 Z M64.2421706,32.0590745 L70.9340634,32.0590745 L70.9340634,38.7380484 L64.2421706,38.7380484 L64.2421706,32.0590745 Z M56.2118993,40.0738432 L62.9037921,40.0738432 L62.9037921,46.752817 L56.2118993,46.752817 L56.2118993,40.0738432 Z M48.181628,48.0886118 L54.8735207,48.0886118 L54.8735207,54.7675857 L48.181628,54.7675857 L48.181628,48.0886118 Z M40.1513566,56.1033805 L46.8432494,56.1033805 L46.8432494,62.7823543 L40.1513566,62.7823543 L40.1513566,56.1033805 Z M32.1210853,64.1181491 L38.8129781,64.1181491 L38.8129781,70.797123 L32.1210853,70.797123 L32.1210853,64.1181491 Z M80.3027133,24.0443059 L86.9946061,24.0443059 L86.9946061,30.7232798 L80.3027133,30.7232798 L80.3027133,24.0443059 Z M72.272442,32.0590745 L78.9643347,32.0590745 L78.9643347,38.7380484 L72.272442,38.7380484 L72.272442,32.0590745 Z M64.2421706,40.0738432 L70.9340634,40.0738432 L70.9340634,46.752817 L64.2421706,46.752817 L64.2421706,40.0738432 Z M56.2118993,48.0886118 L62.9037921,48.0886118 L62.9037921,54.7675857 L56.2118993,54.7675857 L56.2118993,48.0886118 Z M48.181628,56.1033805 L54.8735207,56.1033805 L54.8735207,62.7823543 L48.181628,62.7823543 L48.181628,56.1033805 Z M40.1513566,64.1181491 L46.8432494,64.1181491 L46.8432494,70.797123 L40.1513566,70.797123 L40.1513566,64.1181491 Z M80.3027133,32.0590745 L86.9946061,32.0590745 L86.9946061,38.7380484 L80.3027133,38.7380484 L80.3027133,32.0590745 Z M72.272442,40.0738432 L78.9643347,40.0738432 L78.9643347,46.752817 L72.272442,46.752817 L72.272442,40.0738432 Z M64.2421706,48.0886118 L70.9340634,48.0886118 L70.9340634,54.7675857 L64.2421706,54.7675857 L64.2421706,48.0886118 Z M56.2118993,56.1033805 L62.9037921,56.1033805 L62.9037921,62.7823543 L56.2118993,62.7823543 L56.2118993,56.1033805 Z M48.181628,64.1181491 L54.8735207,64.1181491 L54.8735207,70.797123 L48.181628,70.797123 L48.181628,64.1181491 Z M40.1513566,72.1329177 L46.8432494,72.1329177 L46.8432494,78.8118916 L40.1513566,78.8118916 L40.1513566,72.1329177 Z" id="squares" fill="#FC63B3"></path>
        </g>
        <text id="lastname" font-family="Overpass-SemiBold, Overpass" font-size="LASTNAMEFONTSIZE" font-weight="500" fill="#FFFFFF" x="50%" y="159" text-anchor="middle">
            LASTNAME
        </text>
        <text id="firstname" font-family="Overpass-Heavy, Overpass" font-size="FIRSTNAMEFONTSIZE" font-weight="600" fill="#FFFFFF" x="50%" y="113" text-anchor="middle">
            FIRSTNAME
        </text>
    </g>
</svg>
