<?xml version="1.0" encoding="UTF-8"?>
<svg width="333px" height="462px" viewBox="0 0 333 462" version="1.1" xmlns="http://www.w3.org/2000/svg" xmlns:xlink="http://www.w3.org/1999/xlink">
    <!-- Generator: Sketch 52.3 (67297) - http://www.bohemiancoding.com/sketch -->
    <title>badge-heart-only-3mm-bleed</title>
    <desc>Created with Sketch.</desc>
    <g id="badge-heart-only-3mm-bleed" stroke="none" stroke-width="1" fill="none" fill-rule="evenodd">
        <rect fill="#FFFFFF" x="0" y="0" width="333" height="462"></rect>
        <polygon id="bg-bottom" fill="#1C2541" points="-7.99897059 471.716198 335 471.716198 335 408.630587 -7.99897059 408.630587"></polygon>
        <polygon id="bg-top" fill="#1C2541" points="-12 231.037176 343.001029 231.037176 343.001029 -9 -12 -9"></polygon>
        <path d="M43.2695313,289 L42.5488281,286.814453 L39.4375,286.814453 L38.7167969,289 L37.1582031,289 L40.1582031,280.544922 L41.8632813,280.544922 L44.8632813,289 L43.2695313,289 Z M40.9726563,282.039062 L39.7890625,285.648438 L42.1914063,285.648438 L41.0136719,282.039062 L40.9726563,282.039062 Z M45.2686563,284.570312 C45.2686563,283.433594 46.2588906,282.660156 47.7588906,282.660156 C49.2706094,282.660156 50.2315469,283.474609 50.2667031,284.652344 L48.9073281,284.652344 C48.8487344,284.089844 48.4327188,283.732422 47.7588906,283.732422 C47.1143594,283.732422 46.686625,284.037109 46.686625,284.494141 C46.686625,284.851562 46.9444375,285.097656 47.5948281,285.244141 L48.6260781,285.472656 C49.9151406,285.759766 50.4131875,286.257812 50.4131875,287.160156 C50.4131875,288.332031 49.3350625,289.123047 47.811625,289.123047 C46.1885781,289.123047 45.2276406,288.349609 45.1104531,287.148438 L46.546,287.148438 C46.6573281,287.751953 47.0733438,288.056641 47.811625,288.056641 C48.5206094,288.056641 48.9600625,287.763672 48.9600625,287.300781 C48.9600625,286.925781 48.7374063,286.714844 48.0870156,286.568359 L47.0557656,286.339844 C45.8663125,286.076172 45.2686563,285.490234 45.2686563,284.570312 Z M52.8065469,285.378906 L55.1444375,282.789062 L56.8260781,282.789062 L54.3417031,285.460938 L56.9315469,289 L55.2440469,289 L53.2811563,286.345703 L52.7889688,286.84375 L52.7889688,289 L51.3299844,289 L51.3299844,280.544922 L52.7889688,280.544922 L52.7889688,285.378906 L52.8065469,285.378906 Z M59.8139688,289 L59.8139688,282.789062 L61.2143594,282.789062 L61.2143594,283.867188 L61.2436563,283.867188 C61.5131875,283.146484 62.1694375,282.671875 63.0131875,282.671875 C63.8920938,282.671875 64.5190469,283.123047 64.7475625,283.919922 L64.7827188,283.919922 C65.0815469,283.152344 65.8198281,282.671875 66.7163125,282.671875 C67.9409219,282.671875 68.7436563,283.498047 68.7436563,284.740234 L68.7436563,289 L67.2846719,289 L67.2846719,285.097656 C67.2846719,284.335938 66.8862344,283.902344 66.1713906,283.902344 C65.4682656,283.902344 64.9877969,284.417969 64.9877969,285.162109 L64.9877969,289 L63.5698281,289 L63.5698281,285.021484 C63.5698281,284.330078 63.1479531,283.902344 62.4682656,283.902344 C61.7651406,283.902344 61.2729531,284.447266 61.2729531,285.197266 L61.2729531,289 L59.8139688,289 Z M72.5374063,283.791016 C71.7170938,283.791016 71.1252969,284.417969 71.0667031,285.285156 L73.9670938,285.285156 C73.9377969,284.40625 73.3752969,283.791016 72.5374063,283.791016 Z M73.9729531,287.142578 L75.3381875,287.142578 C75.1506875,288.314453 74.0608438,289.123047 72.5901406,289.123047 C70.7268594,289.123047 69.6018594,287.898438 69.6018594,285.917969 C69.6018594,283.955078 70.7385781,282.660156 72.5315469,282.660156 C74.2952188,282.660156 75.3967813,283.884766 75.3967813,285.771484 L75.3967813,286.246094 L71.0549844,286.246094 L71.0549844,286.333984 C71.0549844,287.330078 71.6643594,287.998047 72.6194375,287.998047 C73.299125,287.998047 73.81475,287.658203 73.9729531,287.142578 Z M80.9042031,287.998047 C81.730375,287.998047 82.3924844,287.447266 82.3924844,286.697266 L82.3924844,286.222656 L80.9569375,286.310547 C80.2538125,286.357422 79.8495156,286.673828 79.8495156,287.166016 C79.8495156,287.675781 80.2713906,287.998047 80.9042031,287.998047 Z M80.46475,289.099609 C79.2635781,289.099609 78.3905313,288.34375 78.3905313,287.224609 C78.3905313,286.123047 79.2401406,285.460938 80.7518594,285.367188 L82.3924844,285.273438 L82.3924844,284.828125 C82.3924844,284.177734 81.9530313,283.802734 81.2323281,283.802734 C80.5409219,283.802734 80.1014688,284.136719 80.0077188,284.652344 L78.6542031,284.652344 C78.7186563,283.492188 79.7088906,282.660156 81.2909219,282.660156 C82.8319375,282.660156 83.8338906,283.474609 83.8338906,284.722656 L83.8338906,289 L82.4276406,289 L82.4276406,288.009766 L82.3983438,288.009766 C82.0409219,288.683594 81.261625,289.099609 80.46475,289.099609 Z M88.430375,289.099609 C87.5163125,289.099609 86.8190469,288.660156 86.4557656,287.939453 L86.4264688,287.939453 L86.4264688,289 L84.9967813,289 L84.9967813,280.544922 L86.4557656,280.544922 L86.4557656,283.855469 L86.4909219,283.855469 C86.8424844,283.128906 87.5514688,282.683594 88.430375,282.683594 C89.9948281,282.683594 90.9909219,283.908203 90.9909219,285.894531 C90.9909219,287.880859 90.0006875,289.099609 88.430375,289.099609 Z M87.9792031,283.884766 C87.0768594,283.884766 86.4499063,284.6875 86.4499063,285.894531 C86.4499063,287.113281 87.0768594,287.904297 87.9792031,287.904297 C88.9167031,287.904297 89.4967813,287.130859 89.4967813,285.894531 C89.4967813,284.664062 88.9108438,283.884766 87.9792031,283.884766 Z M94.6323281,289.123047 C92.8100625,289.123047 91.6264688,287.910156 91.6264688,285.894531 C91.6264688,283.890625 92.8217813,282.660156 94.6323281,282.660156 C96.442875,282.660156 97.6381875,283.884766 97.6381875,285.894531 C97.6381875,287.910156 96.4545938,289.123047 94.6323281,289.123047 Z M94.6323281,287.96875 C95.5581094,287.96875 96.1557656,287.21875 96.1557656,285.894531 C96.1557656,284.576172 95.5581094,283.820312 94.6323281,283.820312 C93.7124063,283.820312 93.1088906,284.576172 93.1088906,285.894531 C93.1088906,287.21875 93.7065469,287.96875 94.6323281,287.96875 Z M104.0335,282.789062 L104.0335,289 L102.62725,289 L102.62725,287.921875 L102.597953,287.921875 C102.269828,288.677734 101.642875,289.111328 100.699516,289.111328 C99.3518594,289.111328 98.4963906,288.238281 98.4963906,286.802734 L98.4963906,282.789062 L99.955375,282.789062 L99.955375,286.509766 C99.955375,287.400391 100.388969,287.880859 101.209281,287.880859 C102.053031,287.880859 102.574516,287.283203 102.574516,286.380859 L102.574516,282.789062 L104.0335,282.789062 Z M105.57725,281.335938 L107.036234,281.335938 L107.036234,282.789062 L108.208109,282.789062 L108.208109,283.914062 L107.036234,283.914062 L107.036234,287.142578 C107.036234,287.652344 107.270609,287.886719 107.786234,287.886719 C107.921,287.886719 108.1085,287.875 108.20225,287.857422 L108.20225,288.970703 C108.044047,289.005859 107.756938,289.029297 107.446391,289.029297 C106.104594,289.029297 105.57725,288.554688 105.57725,287.347656 L105.57725,283.914062 L104.686625,283.914062 L104.686625,282.789062 L105.57725,282.789062 L105.57725,281.335938 Z M110.167875,289.064453 C109.693266,289.064453 109.324125,288.695312 109.324125,288.220703 C109.324125,287.751953 109.693266,287.376953 110.167875,287.376953 C110.636625,287.376953 111.005766,287.751953 111.005766,288.220703 C111.005766,288.695312 110.636625,289.064453 110.167875,289.064453 Z M110.167875,284.6875 C109.693266,284.6875 109.324125,284.3125 109.324125,283.84375 C109.324125,283.375 109.693266,283 110.167875,283 C110.636625,283 111.005766,283.375 111.005766,283.84375 C111.005766,284.3125 110.636625,284.6875 110.167875,284.6875 Z" id="Ask-me-about:" fill="#1C2541"></path>
        <path d="M245.945312,437 L246.546875,434.03125 L244.492188,434.03125 L243.890625,437 L242.171875,437 L242.757812,434.03125 L241,434.03125 L241.320312,432.34375 L243.09375,432.34375 L243.515625,430.234375 L241.71875,430.234375 L242.039062,428.5625 L243.851562,428.5625 L244.429688,425.71875 L246.148438,425.71875 L245.585938,428.5625 L247.632812,428.5625 L248.210938,425.71875 L249.945312,425.71875 L249.375,428.5625 L251.21875,428.5625 L250.898438,430.234375 L249.03125,430.234375 L248.609375,432.34375 L250.492188,432.34375 L250.171875,434.03125 L248.273438,434.03125 L247.679688,437 L245.945312,437 Z M244.679688,432.492188 L246.953125,432.492188 L247.445312,430.09375 L245.164062,430.09375 L244.679688,432.492188 Z M259.570312,431.742188 L257.453125,431.742188 C257.320312,430.859375 256.734375,430.234375 255.796875,430.234375 C254.671875,430.234375 253.96875,431.1875 253.96875,432.804688 C253.96875,434.453125 254.671875,435.390625 255.804688,435.390625 C256.71875,435.390625 257.3125,434.84375 257.453125,433.929688 L259.578125,433.929688 C259.460938,435.90625 257.984375,437.179688 255.78125,437.179688 C253.257812,437.179688 251.65625,435.539062 251.65625,432.804688 C251.65625,430.117188 253.257812,428.445312 255.765625,428.445312 C258.03125,428.445312 259.46875,429.84375 259.570312,431.742188 Z M260.734375,437 L260.734375,425.726562 L262.976562,425.726562 L262.976562,430.117188 L263.023438,430.117188 C263.46875,429.0625 264.382812,428.46875 265.65625,428.46875 C267.515625,428.46875 268.578125,429.671875 268.578125,431.609375 L268.578125,437 L266.296875,437 L266.296875,432.09375 C266.296875,431.015625 265.765625,430.359375 264.726562,430.359375 C263.648438,430.359375 263.015625,431.117188 263.015625,432.21875 L263.015625,437 L260.734375,437 Z M273.140625,437.132812 C271.046875,437.132812 269.726562,435.476562 269.726562,432.796875 C269.726562,430.140625 271.054688,428.492188 273.15625,428.492188 C274.367188,428.492188 275.304688,429.132812 275.710938,430.0625 L275.757812,430.0625 L275.757812,425.726562 L278.039062,425.726562 L278.039062,437 L275.789062,437 L275.789062,435.5625 L275.75,435.5625 C275.34375,436.484375 274.375,437.132812 273.140625,437.132812 Z M273.914062,430.320312 C272.765625,430.320312 272.0625,431.28125 272.0625,432.8125 C272.0625,434.351562 272.765625,435.296875 273.914062,435.296875 C275.046875,435.296875 275.773438,434.34375 275.773438,432.8125 C275.773438,431.289062 275.046875,430.320312 273.914062,430.320312 Z M282.4375,437 L282.4375,427.890625 L282.390625,427.890625 L279.515625,429.84375 L279.515625,427.75 L282.429688,425.726562 L284.773438,425.726562 L284.773438,437 L282.4375,437 Z M291.71875,437.25 C289.023438,437.25 287.148438,435.898438 287.148438,433.945312 C287.148438,432.460938 288.242188,431.367188 289.78125,431.070312 L289.78125,431.023438 C288.453125,430.703125 287.554688,429.734375 287.554688,428.507812 C287.554688,426.757812 289.273438,425.476562 291.71875,425.476562 C294.164062,425.476562 295.875,426.75 295.875,428.515625 C295.875,429.726562 294.984375,430.695312 293.664062,431.023438 L293.664062,431.070312 C295.203125,431.375 296.289062,432.46875 296.289062,433.953125 C296.289062,435.90625 294.40625,437.25 291.71875,437.25 Z M291.71875,435.53125 C292.960938,435.53125 293.820312,434.796875 293.820312,433.773438 C293.820312,432.757812 292.960938,432.03125 291.71875,432.03125 C290.476562,432.03125 289.609375,432.765625 289.609375,433.773438 C289.609375,434.796875 290.476562,435.53125 291.71875,435.53125 Z M291.71875,430.3125 C292.78125,430.3125 293.546875,429.671875 293.546875,428.75 C293.546875,427.820312 292.78125,427.179688 291.71875,427.179688 C290.648438,427.179688 289.890625,427.820312 289.890625,428.75 C289.890625,429.671875 290.648438,430.3125 291.71875,430.3125 Z" id="#chd18" fill="#FFFFFF"></path>
        <path d="M44.2184926,430.429688 C43.3903676,430.429688 42.8981801,431.109375 42.8981801,432.25 C42.8981801,433.382812 43.3903676,434.070312 44.2106801,434.070312 C45.0544301,434.070312 45.5778676,433.375 45.5778676,432.25 C45.5778676,431.125 45.0544301,430.429688 44.2184926,430.429688 Z M44.4763051,425.679688 C48.1794301,425.679688 50.7809926,428.007812 50.7809926,431.484375 C50.7809926,433.945312 49.6169301,435.53125 47.7106801,435.53125 C46.7419301,435.53125 45.9997426,435.0625 45.8278676,434.304688 L45.7184926,434.304688 C45.3981801,435.085938 44.7419301,435.507812 43.8356801,435.507812 C42.2106801,435.507812 41.1247426,434.1875 41.1247426,432.203125 C41.1247426,430.304688 42.1950551,429.007812 43.7575551,429.007812 C44.6013051,429.007812 45.3044301,429.429688 45.6091176,430.117188 L45.7184926,430.117188 L45.7184926,429.179688 L47.3044301,429.179688 L47.3044301,433.359375 C47.3044301,433.898438 47.5544301,434.242188 48.0466176,434.242188 C48.8122426,434.242188 49.3434926,433.265625 49.3434926,431.601562 C49.3434926,428.757812 47.3825551,426.921875 44.4216176,426.921875 C41.4138051,426.921875 39.3044301,429.09375 39.3044301,432.234375 C39.3044301,435.523438 41.4997426,437.445312 44.7184926,437.445312 C45.5544301,437.445312 46.4059926,437.335938 46.8513051,437.171875 L46.8513051,438.421875 C46.2419301,438.601562 45.4450551,438.710938 44.6013051,438.710938 C40.6481801,438.710938 37.8669301,436.234375 37.8669301,432.195312 C37.8669301,428.320312 40.5778676,425.679688 44.4763051,425.679688 Z M59.7341176,431.742188 L57.6169301,431.742188 C57.4841176,430.859375 56.8981801,430.234375 55.9606801,430.234375 C54.8356801,430.234375 54.1325551,431.1875 54.1325551,432.804688 C54.1325551,434.453125 54.8356801,435.390625 55.9684926,435.390625 C56.8825551,435.390625 57.4763051,434.84375 57.6169301,433.929688 L59.7419301,433.929688 C59.6247426,435.90625 58.1481801,437.179688 55.9450551,437.179688 C53.4216176,437.179688 51.8200551,435.539062 51.8200551,432.804688 C51.8200551,430.117188 53.4216176,428.445312 55.9294301,428.445312 C58.1950551,428.445312 59.6325551,429.84375 59.7341176,431.742188 Z M64.6872426,437.179688 C62.1559926,437.179688 60.5388051,435.554688 60.5388051,432.804688 C60.5388051,430.09375 62.1794301,428.445312 64.6872426,428.445312 C67.1950551,428.445312 68.8356801,430.085938 68.8356801,432.804688 C68.8356801,435.5625 67.2184926,437.179688 64.6872426,437.179688 Z M64.6872426,435.4375 C65.8044301,435.4375 66.5153676,434.492188 66.5153676,432.8125 C66.5153676,431.148438 65.7966176,430.1875 64.6872426,430.1875 C63.5778676,430.1875 62.8513051,431.148438 62.8513051,432.8125 C62.8513051,434.492188 63.5622426,435.4375 64.6872426,435.4375 Z M73.1169301,437.132812 C71.0231801,437.132812 69.7028676,435.476562 69.7028676,432.796875 C69.7028676,430.140625 71.0309926,428.492188 73.1325551,428.492188 C74.3434926,428.492188 75.2809926,429.132812 75.6872426,430.0625 L75.7341176,430.0625 L75.7341176,425.726562 L78.0153676,425.726562 L78.0153676,437 L75.7653676,437 L75.7653676,435.5625 L75.7263051,435.5625 C75.3200551,436.484375 74.3513051,437.132812 73.1169301,437.132812 Z M73.8903676,430.320312 C72.7419301,430.320312 72.0388051,431.28125 72.0388051,432.8125 C72.0388051,434.351562 72.7419301,435.296875 73.8903676,435.296875 C75.0231801,435.296875 75.7497426,434.34375 75.7497426,432.8125 C75.7497426,431.289062 75.0231801,430.320312 73.8903676,430.320312 Z M83.2966176,430.132812 C82.2966176,430.132812 81.5778676,430.890625 81.4997426,431.9375 L85.0544301,431.9375 C85.0075551,430.867188 84.3122426,430.132812 83.2966176,430.132812 Z M85.0856801,434.4375 L87.1794301,434.4375 C86.9294301,436.078125 85.4294301,437.179688 83.3591176,437.179688 C80.7809926,437.179688 79.2341176,435.53125 79.2341176,432.851562 C79.2341176,430.179688 80.7966176,428.445312 83.2731801,428.445312 C85.7106801,428.445312 87.2497426,430.09375 87.2497426,432.640625 L87.2497426,433.335938 L81.4763051,433.335938 L81.4763051,433.476562 C81.4763051,434.671875 82.2341176,435.492188 83.3981801,435.492188 C84.2341176,435.492188 84.8747426,435.078125 85.0856801,434.4375 Z M88.4763051,437 L88.4763051,425.726562 L90.7184926,425.726562 L90.7184926,430.117188 L90.7653676,430.117188 C91.2106801,429.0625 92.1247426,428.46875 93.3981801,428.46875 C95.2575551,428.46875 96.3200551,429.671875 96.3200551,431.609375 L96.3200551,437 L94.0388051,437 L94.0388051,432.09375 C94.0388051,431.015625 93.5075551,430.359375 92.4684926,430.359375 C91.3903676,430.359375 90.7575551,431.117188 90.7575551,432.21875 L90.7575551,437 L88.4763051,437 Z M101.530993,430.132812 C100.530993,430.132812 99.8122426,430.890625 99.7341176,431.9375 L103.288805,431.9375 C103.24193,430.867188 102.546618,430.132812 101.530993,430.132812 Z M103.320055,434.4375 L105.413805,434.4375 C105.163805,436.078125 103.663805,437.179688 101.593493,437.179688 C99.0153676,437.179688 97.4684926,435.53125 97.4684926,432.851562 C97.4684926,430.179688 99.0309926,428.445312 101.507555,428.445312 C103.945055,428.445312 105.484118,430.09375 105.484118,432.640625 L105.484118,433.335938 L99.7106801,433.335938 L99.7106801,433.476562 C99.7106801,434.671875 100.468493,435.492188 101.632555,435.492188 C102.468493,435.492188 103.109118,435.078125 103.320055,434.4375 Z M109.890368,435.484375 C110.882555,435.484375 111.702868,434.835938 111.702868,433.929688 L111.702868,433.320312 L109.937243,433.429688 C109.08568,433.492188 108.601305,433.875 108.601305,434.46875 C108.601305,435.09375 109.11693,435.484375 109.890368,435.484375 Z M109.140368,437.132812 C107.546618,437.132812 106.33568,436.101562 106.33568,434.59375 C106.33568,433.070312 107.507555,432.1875 109.593493,432.0625 L111.702868,431.9375 L111.702868,431.382812 C111.702868,430.601562 111.155993,430.148438 110.296618,430.148438 C109.445055,430.148438 108.905993,430.570312 108.796618,431.1875 L106.71068,431.1875 C106.796618,429.5625 108.17943,428.445312 110.39818,428.445312 C112.546618,428.445312 113.945055,429.554688 113.945055,431.242188 L113.945055,437 L111.74193,437 L111.74193,435.71875 L111.695055,435.71875 C111.226305,436.609375 110.187243,437.132812 109.140368,437.132812 Z M115.413805,437 L115.413805,428.625 L117.61693,428.625 L117.61693,430.132812 L117.663805,430.132812 C117.96068,429.070312 118.671618,428.492188 119.655993,428.492188 C119.921618,428.492188 120.14818,428.53125 120.30443,428.578125 L120.30443,430.585938 C120.11693,430.507812 119.80443,430.453125 119.476305,430.453125 C118.351305,430.453125 117.695055,431.140625 117.695055,432.320312 L117.695055,437 L115.413805,437 Z M121.843493,426.695312 L124.124743,426.695312 L124.124743,428.625 L125.671618,428.625 L125.671618,430.34375 L124.124743,430.34375 L124.124743,434.351562 C124.124743,434.992188 124.437243,435.296875 125.109118,435.296875 C125.312243,435.296875 125.52318,435.28125 125.663805,435.257812 L125.663805,436.9375 C125.42943,436.992188 125.038805,437.03125 124.577868,437.03125 C122.609118,437.03125 121.843493,436.375 121.843493,434.742188 L121.843493,430.34375 L120.663805,430.34375 L120.663805,428.625 L121.843493,428.625 L121.843493,426.695312 Z M129.913805,437.132812 C127.820055,437.132812 126.499743,435.476562 126.499743,432.796875 C126.499743,430.140625 127.827868,428.492188 129.92943,428.492188 C131.140368,428.492188 132.077868,429.132812 132.484118,430.0625 L132.530993,430.0625 L132.530993,425.726562 L134.812243,425.726562 L134.812243,437 L132.562243,437 L132.562243,435.5625 L132.52318,435.5625 C132.11693,436.484375 131.14818,437.132812 129.913805,437.132812 Z M130.687243,430.320312 C129.538805,430.320312 128.83568,431.28125 128.83568,432.8125 C128.83568,434.351562 129.538805,435.296875 130.687243,435.296875 C131.820055,435.296875 132.546618,434.34375 132.546618,432.8125 C132.546618,431.289062 131.820055,430.320312 130.687243,430.320312 Z M140.093493,430.132812 C139.093493,430.132812 138.374743,430.890625 138.296618,431.9375 L141.851305,431.9375 C141.80443,430.867188 141.109118,430.132812 140.093493,430.132812 Z M141.882555,434.4375 L143.976305,434.4375 C143.726305,436.078125 142.226305,437.179688 140.155993,437.179688 C137.577868,437.179688 136.030993,435.53125 136.030993,432.851562 C136.030993,430.179688 137.593493,428.445312 140.070055,428.445312 C142.507555,428.445312 144.046618,430.09375 144.046618,432.640625 L144.046618,433.335938 L138.27318,433.335938 L138.27318,433.476562 C138.27318,434.671875 139.030993,435.492188 140.195055,435.492188 C141.030993,435.492188 141.671618,435.078125 141.882555,434.4375 Z M145.077868,431.085938 C145.077868,429.492188 146.452868,428.445312 148.58568,428.445312 C150.734118,428.445312 152.062243,429.546875 152.109118,431.1875 L150.007555,431.1875 C149.937243,430.507812 149.42943,430.046875 148.58568,430.046875 C147.796618,430.046875 147.27318,430.40625 147.27318,430.960938 C147.27318,431.390625 147.58568,431.679688 148.42943,431.859375 L149.859118,432.164062 C151.609118,432.53125 152.327868,433.21875 152.327868,434.445312 C152.327868,436.09375 150.820055,437.179688 148.663805,437.179688 C146.351305,437.179688 145.015368,436.101562 144.86693,434.453125 L147.093493,434.453125 C147.234118,435.1875 147.757555,435.578125 148.663805,435.578125 C149.52318,435.578125 150.05443,435.226562 150.05443,434.679688 C150.05443,434.234375 149.765368,433.984375 148.945055,433.796875 L147.515368,433.5 C145.89818,433.15625 145.077868,432.34375 145.077868,431.085938 Z M153.49193,437 L153.49193,428.625 L155.77318,428.625 L155.77318,437 L153.49193,437 Z M154.624743,427.492188 C153.96068,427.492188 153.437243,426.960938 153.437243,426.320312 C153.437243,425.671875 153.96068,425.148438 154.624743,425.148438 C155.288805,425.148438 155.812243,425.671875 155.812243,426.320312 C155.812243,426.960938 155.288805,427.492188 154.624743,427.492188 Z M161.155993,435.21875 C162.296618,435.21875 163.02318,434.3125 163.02318,432.796875 C163.02318,431.289062 162.296618,430.320312 161.155993,430.320312 C160.030993,430.320312 159.320055,431.273438 159.320055,432.796875 C159.320055,434.328125 160.02318,435.21875 161.155993,435.21875 Z M161.11693,440.15625 C158.913805,440.15625 157.421618,439.085938 157.24193,437.59375 L159.476305,437.59375 C159.655993,438.171875 160.312243,438.570312 161.17943,438.570312 C162.359118,438.570312 163.015368,437.914062 163.015368,436.945312 L163.015368,435.476562 L162.968493,435.476562 C162.577868,436.367188 161.593493,436.976562 160.382555,436.976562 C158.33568,436.976562 156.984118,435.398438 156.984118,432.78125 C156.984118,430.125 158.296618,428.492188 160.421618,428.492188 C161.624743,428.492188 162.570055,429.125 163.007555,430.085938 L163.046618,430.085938 L163.046618,428.625 L165.296618,428.625 L165.296618,436.882812 C165.296618,438.882812 163.624743,440.15625 161.11693,440.15625 Z M166.780993,437 L166.780993,428.625 L168.984118,428.625 L168.984118,430.117188 L169.030993,430.117188 C169.476305,429.078125 170.359118,428.46875 171.64818,428.46875 C173.507555,428.46875 174.55443,429.640625 174.55443,431.601562 L174.55443,437 L172.27318,437 L172.27318,432.078125 C172.27318,430.984375 171.757555,430.359375 170.734118,430.359375 C169.71068,430.359375 169.062243,431.109375 169.062243,432.195312 L169.062243,437 L166.780993,437 Z" id="@codeheartdesign" fill="#FFFFFF"></path>
        <g id="hole-punch" transform="translate(163.000000, 41.000000)" fill-rule="nonzero" stroke="#FFFFFF" stroke-linecap="square" stroke-opacity="0.150985054">
            <path d="M6.99440506e-15,4 L2,4" id="Line"></path>
            <path d="M5,4 L7,4" id="Line"></path>
            <path d="M3.5,0.5 L3.49948529,2.5" id="Line-2"></path>
            <path d="M3.5,5.5 L3.49948529,7.5" id="Line-2"></path>
        </g>
        <g id="heart" transform="translate(123.000000, 194.000000)">
            <polygon id="outline" stroke="#FFFFFF" stroke-width="9.5" fill="#FFFFFF" fill-rule="nonzero" stroke-linejoin="round" points="16.0615385 0 16.0615385 8.01476864 8.03076923 8.01476864 8.03076923 16.0295373 0 16.0295373 0 38.7380484 8.03076923 38.7380484 8.03076923 46.752817 16.0615385 46.752817 16.0615385 55.0614605 24.0924783 55.0614605 24.0924783 62.7823543 32.2143748 62.7823543 32.2143748 70.797123 40.213155 70.797123 40.213155 78.8118916 46.8461538 78.8118916 46.8461538 70.797123 54.6998407 70.797123 54.6998407 62.7823543 62.9076923 62.7823543 62.9076923 55.0614605 70.8853154 55.0614605 70.8853154 46.752817 79.0752499 46.752817 79.0752499 38.7380484 87 38.7380484 87 16.0295373 79.0752499 16.0295373 79.0752499 8.01476864 70.8853154 8.01476864 70.8853154 0 56.0622198 0 56.0622198 8.01476864 48.1681965 8.01476864 48.1681965 16.0295373 38.810817 16.0295373 38.810817 8.01476864 31.0242505 8.01476864 31.0242505 0"></polygon>
            <path d="M16.0605427,-1.24344979e-14 L22.7524354,-1.24344979e-14 L22.7524354,6.67897386 L16.0605427,6.67897386 L16.0605427,-1.24344979e-14 Z M8.03027133,8.01476864 L14.7221641,8.01476864 L14.7221641,14.6937425 L8.03027133,14.6937425 L8.03027133,8.01476864 Z M1.95399252e-13,16.0295373 L6.69189277,16.0295373 L6.69189277,22.7085111 L1.95399252e-13,22.7085111 L1.95399252e-13,16.0295373 Z M24.090814,-1.24344979e-14 L30.7827068,-1.24344979e-14 L30.7827068,6.67897386 L24.090814,6.67897386 L24.090814,-1.24344979e-14 Z M16.0605427,8.01476864 L22.7524354,8.01476864 L22.7524354,14.6937425 L16.0605427,14.6937425 L16.0605427,8.01476864 Z M8.03027133,16.0295373 L14.7221641,16.0295373 L14.7221641,22.7085111 L8.03027133,22.7085111 L8.03027133,16.0295373 Z M1.95399252e-13,24.0443059 L6.69189277,24.0443059 L6.69189277,30.7232798 L1.95399252e-13,30.7232798 L1.95399252e-13,24.0443059 Z M24.090814,8.01476864 L30.7827068,8.01476864 L30.7827068,14.6937425 L24.090814,14.6937425 L24.090814,8.01476864 Z M16.0605427,16.0295373 L22.7524354,16.0295373 L22.7524354,22.7085111 L16.0605427,22.7085111 L16.0605427,16.0295373 Z M8.03027133,24.0443059 L14.7221641,24.0443059 L14.7221641,30.7232798 L8.03027133,30.7232798 L8.03027133,24.0443059 Z M1.95399252e-13,32.0590745 L6.69189277,32.0590745 L6.69189277,38.7380484 L1.95399252e-13,38.7380484 L1.95399252e-13,32.0590745 Z M32.1210853,8.01476864 L38.8129781,8.01476864 L38.8129781,14.6937425 L32.1210853,14.6937425 L32.1210853,8.01476864 Z M24.090814,16.0295373 L30.7827068,16.0295373 L30.7827068,22.7085111 L24.090814,22.7085111 L24.090814,16.0295373 Z M16.0605427,24.0443059 L22.7524354,24.0443059 L22.7524354,30.7232798 L16.0605427,30.7232798 L16.0605427,24.0443059 Z M8.03027133,32.0590745 L14.7221641,32.0590745 L14.7221641,38.7380484 L8.03027133,38.7380484 L8.03027133,32.0590745 Z M32.1210853,16.0295373 L38.8129781,16.0295373 L38.8129781,22.7085111 L32.1210853,22.7085111 L32.1210853,16.0295373 Z M24.090814,24.0443059 L30.7827068,24.0443059 L30.7827068,30.7232798 L24.090814,30.7232798 L24.090814,24.0443059 Z M16.0605427,32.0590745 L22.7524354,32.0590745 L22.7524354,38.7380484 L16.0605427,38.7380484 L16.0605427,32.0590745 Z M8.03027133,40.0738432 L14.7221641,40.0738432 L14.7221641,46.752817 L8.03027133,46.752817 L8.03027133,40.0738432 Z M56.2118993,-1.24344979e-14 L62.9037921,-1.24344979e-14 L62.9037921,6.67897386 L56.2118993,6.67897386 L56.2118993,-1.24344979e-14 Z M48.181628,8.01476864 L54.8735207,8.01476864 L54.8735207,14.6937425 L48.181628,14.6937425 L48.181628,8.01476864 Z M40.1513566,16.0295373 L46.8432494,16.0295373 L46.8432494,22.7085111 L40.1513566,22.7085111 L40.1513566,16.0295373 Z M32.1210853,24.0443059 L38.8129781,24.0443059 L38.8129781,30.7232798 L32.1210853,30.7232798 L32.1210853,24.0443059 Z M24.090814,32.0590745 L30.7827068,32.0590745 L30.7827068,38.7380484 L24.090814,38.7380484 L24.090814,32.0590745 Z M16.0605427,40.0738432 L22.7524354,40.0738432 L22.7524354,46.752817 L16.0605427,46.752817 L16.0605427,40.0738432 Z M64.2421706,-1.24344979e-14 L70.9340634,-1.24344979e-14 L70.9340634,6.67897386 L64.2421706,6.67897386 L64.2421706,-1.24344979e-14 Z M56.2118993,8.01476864 L62.9037921,8.01476864 L62.9037921,14.6937425 L56.2118993,14.6937425 L56.2118993,8.01476864 Z M48.181628,16.0295373 L54.8735207,16.0295373 L54.8735207,22.7085111 L48.181628,22.7085111 L48.181628,16.0295373 Z M40.1513566,24.0443059 L46.8432494,24.0443059 L46.8432494,30.7232798 L40.1513566,30.7232798 L40.1513566,24.0443059 Z M32.1210853,32.0590745 L38.8129781,32.0590745 L38.8129781,38.7380484 L32.1210853,38.7380484 L32.1210853,32.0590745 Z M24.090814,40.0738432 L30.7827068,40.0738432 L30.7827068,46.752817 L24.090814,46.752817 L24.090814,40.0738432 Z M16.0605427,48.0886118 L22.7524354,48.0886118 L22.7524354,54.7675857 L16.0605427,54.7675857 L16.0605427,48.0886118 Z M64.2421706,8.01476864 L70.9340634,8.01476864 L70.9340634,14.6937425 L64.2421706,14.6937425 L64.2421706,8.01476864 Z M56.2118993,16.0295373 L62.9037921,16.0295373 L62.9037921,22.7085111 L56.2118993,22.7085111 L56.2118993,16.0295373 Z M48.181628,24.0443059 L54.8735207,24.0443059 L54.8735207,30.7232798 L48.181628,30.7232798 L48.181628,24.0443059 Z M40.1513566,32.0590745 L46.8432494,32.0590745 L46.8432494,38.7380484 L40.1513566,38.7380484 L40.1513566,32.0590745 Z M32.1210853,40.0738432 L38.8129781,40.0738432 L38.8129781,46.752817 L32.1210853,46.752817 L32.1210853,40.0738432 Z M24.090814,48.0886118 L30.7827068,48.0886118 L30.7827068,54.7675857 L24.090814,54.7675857 L24.090814,48.0886118 Z M72.272442,8.01476864 L78.9643347,8.01476864 L78.9643347,14.6937425 L72.272442,14.6937425 L72.272442,8.01476864 Z M64.2421706,16.0295373 L70.9340634,16.0295373 L70.9340634,22.7085111 L64.2421706,22.7085111 L64.2421706,16.0295373 Z M56.2118993,24.0443059 L62.9037921,24.0443059 L62.9037921,30.7232798 L56.2118993,30.7232798 L56.2118993,24.0443059 Z M48.181628,32.0590745 L54.8735207,32.0590745 L54.8735207,38.7380484 L48.181628,38.7380484 L48.181628,32.0590745 Z M40.1513566,40.0738432 L46.8432494,40.0738432 L46.8432494,46.752817 L40.1513566,46.752817 L40.1513566,40.0738432 Z M32.1210853,48.0886118 L38.8129781,48.0886118 L38.8129781,54.7675857 L32.1210853,54.7675857 L32.1210853,48.0886118 Z M24.090814,56.1033805 L30.7827068,56.1033805 L30.7827068,62.7823543 L24.090814,62.7823543 L24.090814,56.1033805 Z M72.272442,16.0295373 L78.9643347,16.0295373 L78.9643347,22.7085111 L72.272442,22.7085111 L72.272442,16.0295373 Z M64.2421706,24.0443059 L70.9340634,24.0443059 L70.9340634,30.7232798 L64.2421706,30.7232798 L64.2421706,24.0443059 Z M56.2118993,32.0590745 L62.9037921,32.0590745 L62.9037921,38.7380484 L56.2118993,38.7380484 L56.2118993,32.0590745 Z M48.181628,40.0738432 L54.8735207,40.0738432 L54.8735207,46.752817 L48.181628,46.752817 L48.181628,40.0738432 Z M40.1513566,48.0886118 L46.8432494,48.0886118 L46.8432494,54.7675857 L40.1513566,54.7675857 L40.1513566,48.0886118 Z M32.1210853,56.1033805 L38.8129781,56.1033805 L38.8129781,62.7823543 L32.1210853,62.7823543 L32.1210853,56.1033805 Z M80.3027133,16.0295373 L86.9946061,16.0295373 L86.9946061,22.7085111 L80.3027133,22.7085111 L80.3027133,16.0295373 Z M72.272442,24.0443059 L78.9643347,24.0443059 L78.9643347,30.7232798 L72.272442,30.7232798 L72.272442,24.0443059 Z M64.2421706,32.0590745 L70.9340634,32.0590745 L70.9340634,38.7380484 L64.2421706,38.7380484 L64.2421706,32.0590745 Z M56.2118993,40.0738432 L62.9037921,40.0738432 L62.9037921,46.752817 L56.2118993,46.752817 L56.2118993,40.0738432 Z M48.181628,48.0886118 L54.8735207,48.0886118 L54.8735207,54.7675857 L48.181628,54.7675857 L48.181628,48.0886118 Z M40.1513566,56.1033805 L46.8432494,56.1033805 L46.8432494,62.7823543 L40.1513566,62.7823543 L40.1513566,56.1033805 Z M32.1210853,64.1181491 L38.8129781,64.1181491 L38.8129781,70.797123 L32.1210853,70.797123 L32.1210853,64.1181491 Z M80.3027133,24.0443059 L86.9946061,24.0443059 L86.9946061,30.7232798 L80.3027133,30.7232798 L80.3027133,24.0443059 Z M72.272442,32.0590745 L78.9643347,32.0590745 L78.9643347,38.7380484 L72.272442,38.7380484 L72.272442,32.0590745 Z M64.2421706,40.0738432 L70.9340634,40.0738432 L70.9340634,46.752817 L64.2421706,46.752817 L64.2421706,40.0738432 Z M56.2118993,48.0886118 L62.9037921,48.0886118 L62.9037921,54.7675857 L56.2118993,54.7675857 L56.2118993,48.0886118 Z M48.181628,56.1033805 L54.8735207,56.1033805 L54.8735207,62.7823543 L48.181628,62.7823543 L48.181628,56.1033805 Z M40.1513566,64.1181491 L46.8432494,64.1181491 L46.8432494,70.797123 L40.1513566,70.797123 L40.1513566,64.1181491 Z M80.3027133,32.0590745 L86.9946061,32.0590745 L86.9946061,38.7380484 L80.3027133,38.7380484 L80.3027133,32.0590745 Z M72.272442,40.0738432 L78.9643347,40.0738432 L78.9643347,46.752817 L72.272442,46.752817 L72.272442,40.0738432 Z M64.2421706,48.0886118 L70.9340634,48.0886118 L70.9340634,54.7675857 L64.2421706,54.7675857 L64.2421706,48.0886118 Z M56.2118993,56.1033805 L62.9037921,56.1033805 L62.9037921,62.7823543 L56.2118993,62.7823543 L56.2118993,56.1033805 Z M48.181628,64.1181491 L54.8735207,64.1181491 L54.8735207,70.797123 L48.181628,70.797123 L48.181628,64.1181491 Z M40.1513566,72.1329177 L46.8432494,72.1329177 L46.8432494,78.8118916 L40.1513566,78.8118916 L40.1513566,72.1329177 Z" id="squares" fill="#FC63B3"></path>
        </g>
        <text id="lastname" font-family="Overpass-SemiBold, Overpass" font-size="LASTNAMEFONTSIZE" font-weight="500" fill="#FFFFFF" x="50%" y="168" text-anchor="middle">
        LASTNAME
        </text>
        <text id="firstname" font-family="Overpass-Heavy, Overpass" font-size="FIRSTNAMEFONTSIZE" font-weight="600" fill="#FFFFFF" x="50%" y="122" text-anchor="middle">
        FIRSTNAME
        </text>
        <g id="crop-marks" fill-rule="nonzero" stroke="#979797" stroke-linecap="square">
            <path d="M9.5,6.5 L9.5,0.5" id="Line-3"></path>
            <path d="M6.5,9.5 L0.5,9.5" id="Line-4"></path>
            <path d="M326.5,9.5 L332.5,9.5" id="Line-5"></path>
            <path d="M323.5,6.5 L323.5,-8.8817842e-16" id="Line-6"></path>
            <path d="M6.5,452.5 L0.5,452.5" id="Line-7"></path>
            <path d="M9.5,455.5 L9.5,461.5" id="Line-8"></path>
            <path d="M326.5,452.5 L332.5,452.5" id="Line-9"></path>
            <path d="M323.5,455.5 L323.5,461.5" id="Line-10"></path>
        </g>
    </g>
</svg>
